<svg width="149" height="81" viewBox="0 0 149 81" fill="none" xmlns="http://www.w3.org/2000/svg">
<path fill-rule="evenodd" clip-rule="evenodd" d="M42.1144 31.2332L43.9374 44.0962H40.2914L42.1144 31.2332ZM39.5294 48.8872H44.6674L45.8184 56.3862H50.9934L45.5254 23.7602H38.7554L33.2094 56.3862H38.3334L39.5294 48.8872Z" fill="#00BDBB"/>
<path fill-rule="evenodd" clip-rule="evenodd" d="M62.1893 56.8028C64.3243 56.8028 66.1563 56.0478 67.6833 54.5378C69.2103 53.0268 69.9753 51.1878 69.9753 49.0168V44.4608H64.8713V48.9648C64.8713 49.7458 64.5933 50.4108 64.0383 50.9568C63.4823 51.5038 62.8143 51.7778 62.0333 51.7778C61.2523 51.7778 60.5883 51.5038 60.0413 50.9568C59.4943 50.4108 59.2213 49.7458 59.2213 48.9648V31.1028C59.2213 30.3218 59.4943 29.6538 60.0413 29.0978C60.5883 28.5428 61.2523 28.2648 62.0333 28.2648C62.8143 28.2648 63.4823 28.5428 64.0383 29.0978C64.5933 29.6538 64.8713 30.3218 64.8713 31.1028V34.9308H69.9753V31.2068C69.9753 29.0548 69.2193 27.2148 67.7093 25.6868C66.1993 24.1598 64.3593 23.3958 62.1893 23.3958C60.0363 23.3958 58.1973 24.1548 56.6693 25.6738C55.1413 27.1928 54.3783 29.0378 54.3783 31.2068V49.0168C54.3783 51.1698 55.1373 53.0058 56.6563 54.5248C58.1753 56.0438 60.0193 56.8028 62.1893 56.8028Z" fill="#00BDBB"/>
<path fill-rule="evenodd" clip-rule="evenodd" d="M78.9315 35.92L83.6965 56.386H87.6545L91.9245 35.868V56.386H96.8455V23.734H90.0615L85.6585 47.19L81.0725 23.734H74.0105V56.386H78.9315V35.92Z" fill="#00BDBB"/>
<path fill-rule="evenodd" clip-rule="evenodd" d="M115.255 51.4389H106.167V42.5339H112.807V37.5859H106.167V28.6809H115.255V23.7339H101.246V56.3859H115.255V51.4389Z" fill="#00BDBB"/>
<path fill-rule="evenodd" clip-rule="evenodd" d="M5.041 75.157H143.423V5.041H5.041V75.157ZM0 80.198H148.464V0H0V80.198Z" fill="#00BDBB"/>
</svg>
