<svg width="149" height="81" viewBox="0 0 149 81" fill="none" xmlns="http://www.w3.org/2000/svg">
<path fill-rule="evenodd" clip-rule="evenodd" d="M42.1142 31.2332L43.9372 44.0962H40.2912L42.1142 31.2332ZM39.5292 48.8872H44.6672L45.8182 56.3862H50.9932L45.5252 23.7602H38.7552L33.2092 56.3862H38.3332L39.5292 48.8872Z" fill="#313048"/>
<path fill-rule="evenodd" clip-rule="evenodd" d="M62.1894 56.8028C64.3244 56.8028 66.1564 56.0478 67.6834 54.5378C69.2104 53.0268 69.9754 51.1878 69.9754 49.0168V44.4608H64.8714V48.9648C64.8714 49.7458 64.5934 50.4108 64.0384 50.9568C63.4824 51.5038 62.8144 51.7778 62.0334 51.7778C61.2524 51.7778 60.5884 51.5038 60.0414 50.9568C59.4944 50.4108 59.2214 49.7458 59.2214 48.9648V31.1028C59.2214 30.3218 59.4944 29.6538 60.0414 29.0978C60.5884 28.5428 61.2524 28.2648 62.0334 28.2648C62.8144 28.2648 63.4824 28.5428 64.0384 29.0978C64.5934 29.6538 64.8714 30.3218 64.8714 31.1028V34.9308H69.9754V31.2068C69.9754 29.0548 69.2194 27.2148 67.7094 25.6868C66.1994 24.1598 64.3594 23.3958 62.1894 23.3958C60.0364 23.3958 58.1974 24.1548 56.6694 25.6738C55.1414 27.1928 54.3784 29.0378 54.3784 31.2068V49.0168C54.3784 51.1698 55.1374 53.0058 56.6564 54.5248C58.1754 56.0438 60.0194 56.8028 62.1894 56.8028" fill="#313048"/>
<path fill-rule="evenodd" clip-rule="evenodd" d="M78.9315 35.92L83.6965 56.386H87.6545L91.9245 35.868V56.386H96.8455V23.734H90.0615L85.6585 47.19L81.0725 23.734H74.0105V56.386H78.9315V35.92Z" fill="#313048"/>
<path fill-rule="evenodd" clip-rule="evenodd" d="M115.255 51.4389H106.167V42.5339H112.807V37.5859H106.167V28.6809H115.255V23.7339H101.246V56.3859H115.255V51.4389Z" fill="#313048"/>
<path fill-rule="evenodd" clip-rule="evenodd" d="M5.041 75.157H143.423V5.041H5.041V75.157ZM0 80.198H148.464V0H0V80.198Z" fill="#313048"/>
</svg>
